<svg width="24" height="24" viewBox="0 0 24 24" fill="none" xmlns="http://www.w3.org/2000/svg">
<path fill-rule="evenodd" clip-rule="evenodd" d="M4.5 3C4.5 2.44772 4.94772 2 5.5 2H18.5C19.0523 2 19.5 2.44772 19.5 3C19.5 3.55228 19.0523 4 18.5 4V7C18.5 9.08697 17.4345 10.9251 15.8178 12C17.4345 13.0749 18.5 14.913 18.5 17V20C19.0523 20 19.5 20.4477 19.5 21C19.5 21.5523 19.0523 22 18.5 22H5.5C4.94772 22 4.5 21.5523 4.5 21C4.5 20.4477 4.94772 20 5.5 20V17C5.5 14.913 6.56551 13.0749 8.18221 12C6.56551 10.9251 5.5 9.08697 5.5 7V4C4.94772 4 4.5 3.55228 4.5 3ZM7.5 4H16.5V7C16.5 9.20914 14.7091 11 12.5 11H11.5C9.29086 11 7.5 9.20914 7.5 7V4ZM7.52165 16.5813C7.73099 14.5689 9.43227 13 11.5 13H12.5C14.5677 13 16.269 14.5689 16.4783 16.5813C15.3263 16.3074 13.6632 16 12 16C10.3368 16 8.67365 16.3074 7.52165 16.5813Z" fill="#191919"/>
</svg>
