<svg width="24" height="24" viewBox="0 0 24 24" fill="none" xmlns="http://www.w3.org/2000/svg">
<path d="M6.00002 9C6.00002 8.44772 6.44773 8 7.00002 8H15C15.5523 8 16 8.44772 16 9C16 9.55229 15.5523 10 15 10H7.00002C6.44773 10 6.00002 9.55229 6.00002 9Z" fill="#191919"/>
<path d="M6.00002 13C6.00002 12.4477 6.44773 12 7.00002 12H12C12.5523 12 13 12.4477 13 13C13 13.5523 12.5523 14 12 14H7.00002C6.44773 14 6.00002 13.5523 6.00002 13Z" fill="#191919"/>
<path fill-rule="evenodd" clip-rule="evenodd" d="M22 19.6472C22 20.5044 22 20.9331 21.8195 21.1912C21.6618 21.4166 21.4183 21.5671 21.1462 21.6073C20.8345 21.6533 20.4512 21.4617 19.6845 21.0783L15.7812 19.1267C15.646 19.0591 15.5797 19.0261 15.5308 19.0033L15.5275 19.0018L15.5237 19.0017C15.4698 19.0002 15.3958 19 15.2446 19H7.20001C7.17872 19 7.15746 19 7.13621 19C6.63145 19.0001 6.13986 19.0001 5.72355 18.9661C5.26636 18.9288 4.72689 18.8406 4.18405 18.564C3.4314 18.1805 2.81948 17.5686 2.43598 16.816C2.15939 16.2731 2.07125 15.7337 2.0339 15.2765C1.99988 14.8601 1.99994 14.3686 2.00001 13.8638L2.00001 9.13625C1.99994 8.63147 1.99989 8.13988 2.0339 7.72355C2.07125 7.26636 2.15939 6.7269 2.43598 6.18405C2.81948 5.4314 3.4314 4.81948 4.18405 4.43598C4.7269 4.15939 5.26636 4.07125 5.72355 4.0339C6.13987 3.99989 6.63145 3.99995 7.13621 4.00001C7.15746 4.00001 7.17872 4.00001 7.20001 4.00001L16.8 4.00001C16.8213 4.00001 16.8426 4.00001 16.8638 4.00001C17.3686 3.99995 17.8602 3.99989 18.2765 4.0339C18.7337 4.07125 19.2731 4.15939 19.816 4.43598C20.5686 4.81948 21.1805 5.4314 21.564 6.18405C21.8406 6.7269 21.9288 7.26637 21.9661 7.72355C22.0001 8.13987 22.0001 8.63145 22 9.13622C22 9.15746 22 9.17873 22 9.20001V19.6472ZM16.6757 17.3378C16.4237 17.2118 16.2977 17.1489 16.1656 17.1044C16.0484 17.065 15.9277 17.0365 15.8052 17.0193C15.6672 17 15.5263 17 15.2446 17H7.20001C6.0799 17 5.51985 17 5.09203 16.782C4.7157 16.5903 4.40974 16.2843 4.218 15.908C4.00001 15.4802 4.00001 14.9201 4.00001 13.8V9.20001C4.00001 8.07991 4.00001 7.51985 4.218 7.09203C4.40974 6.7157 4.7157 6.40974 5.09203 6.218C5.51985 6.00001 6.0799 6.00001 7.20001 6.00001L16.8 6.00001C17.9201 6.00001 18.4802 6.00001 18.908 6.218C19.2843 6.40974 19.5903 6.71571 19.782 7.09203C20 7.51985 20 8.07991 20 9.20001V19L16.6757 17.3378Z" fill="#191919"/>
</svg>
