<svg width="24" height="24" viewBox="0 0 24 24" fill="none" xmlns="http://www.w3.org/2000/svg">
<path fill-rule="evenodd" clip-rule="evenodd" d="M8 2C8.55228 2 9 2.44772 9 3V4H15V3C15 2.44772 15.4477 2 16 2C16.5523 2 17 2.44772 17 3V4C19.2091 4 21 5.79086 21 8V18C21 20.2091 19.2091 22 17 22H7C4.79086 22 3 20.2091 3 18V8C3 5.79086 4.79086 4 7 4V3C7 2.44772 7.44772 2 8 2ZM15 6C15 6.55228 15.4477 7 16 7C16.5523 7 17 6.55229 17 6C18.1046 6 19 6.89543 19 8V9H5V8C5 6.89543 5.89543 6 7 6C7 6.55228 7.44771 7 8 7C8.55228 7 9 6.55229 9 6H15ZM5 11V18C5 19.1046 5.89543 20 7 20H17C18.1046 20 19 19.1046 19 18V11H5Z" fill="#191919"/>
</svg>
