<svg width="24" height="24" viewBox="0 0 24 24" fill="none" xmlns="http://www.w3.org/2000/svg">
<path d="M12 7.99875C12.5523 7.99875 13 8.44646 13 8.99875V10.9987H15C15.5523 10.9987 16 11.4465 16 11.9987C16 12.551 15.5523 12.9987 15 12.9987H13V14.9987C13 15.551 12.5523 15.9987 12 15.9987C11.4477 15.9987 11 15.551 11 14.9987V12.9987H9C8.44772 12.9987 8 12.551 8 11.9987C8 11.4465 8.44772 10.9987 9 10.9987H11V8.99875C11 8.44646 11.4477 7.99875 12 7.99875Z" fill="#4969F5"/>
<path fill-rule="evenodd" clip-rule="evenodd" d="M12.7713 2.21565C12.2987 2.02778 11.7723 2.02701 11.2991 2.21351L4.26659 4.98542C3.50282 5.28646 3.00002 6.02364 3 6.8456L3.00001 11.0962C3.00002 12.0042 3.05954 12.9952 3.35393 13.9684C4.40502 17.4432 6.93766 20.5502 11.316 22.2938C11.7764 22.4771 12.2915 22.4774 12.7526 22.2933C17.0846 20.5638 19.5692 17.4428 20.6281 14.0098C20.936 13.0116 21 11.9929 21 11.0571V6.84354C21 6.02371 20.4998 5.28792 19.7388 4.98542L12.7713 2.21565ZM5.00001 11.0962L5 6.84609L12.0325 4.07419L19 6.84395V11.0571C19 11.9164 18.9381 12.7031 18.7169 13.4203C17.8314 16.2914 15.7693 18.9281 12.0337 20.4268C8.23552 18.9073 6.14143 16.276 5.26826 13.3893C5.05789 12.6938 5.00002 11.9317 5.00001 11.0962Z" fill="#4969F5"/>
</svg>
